<?xml version="1.0" encoding="utf-8"?>
<!-- Generator: Adobe Illustrator 26.0.3, SVG Export Plug-In . SVG Version: 6.00 Build 0)  -->
<svg version="1.1" id="_x32_" xmlns="http://www.w3.org/2000/svg" xmlns:xlink="http://www.w3.org/1999/xlink" x="0px" y="0px"
	 viewBox="0 0 512 512" style="enable-background:new 0 0 512 512;" xml:space="preserve">
<style type="text/css">
	.st0{fill:#4B4B4B;}
</style>
<g>
	<path class="st0" d="M446.8,319.8H65.2c-27,0-48.9,21.9-48.9,48.9v62c0,27,21.9,48.9,48.9,48.9h381.6c27,0,48.9-21.9,48.9-48.9v-62
		C495.7,341.7,473.7,319.8,446.8,319.8z M471.7,430.7c0,13.8-11.2,24.9-24.9,24.9H65.2c-13.8,0-24.9-11.2-24.9-24.9v-62
		c0-13.8,11.2-24.9,24.9-24.9h381.6c13.8,0,24.9,11.2,24.9,24.9V430.7z"/>
	<rect x="96.2" y="375.7" class="st0" width="47.9" height="47.9"/>
	<rect x="108.2" y="119.8" class="st0" width="24" height="200"/>
	<circle class="st0" cx="120.2" cy="119.8" r="40"/>
</g>
</svg>
