<?xml version="1.0" encoding="utf-8"?>
<!-- Generator: Adobe Illustrator 26.2.1, SVG Export Plug-In . SVG Version: 6.00 Build 0)  -->
<svg version="1.1" id="レイヤー_1" xmlns="http://www.w3.org/2000/svg" xmlns:xlink="http://www.w3.org/1999/xlink" x="0px"
	 y="0px" viewBox="0 0 512 512" style="enable-background:new 0 0 512 512;" xml:space="preserve">
<style type="text/css">
	.st0{fill:#4B4B4B;stroke:#4B4B4B;stroke-width:1.02;stroke-linecap:round;stroke-linejoin:round;stroke-miterlimit:10;}
	.st1{fill:#4B4B4B;}
	.st2{fill:none;stroke:#FFFFFF;stroke-width:9;}
</style>
<g>
	<path class="st0" d="M28.2,250.7c0.8,0.8,1.2,1.8,1.2,2.9l-0.1,0v106.1l0.1,0c0,1.1-0.4,2.1-1.2,2.9l-0.1,0L4.5,386.3l0,0
		c-2.3,2.3-3.6,5.4-3.6,8.6l-0.1,0v92.2l0.1,0c0,6.7,5.4,12.1,12.1,12.1l0,0.1h51.7l0-0.1c3.2,0,6.3-1.3,8.6-3.6l0,0l13.5-13.5
		l0.1,0c0.8-0.8,1.8-1.2,2.9-1.2h0h106l0,0c1.1,0,2.1,0.4,2.9,1.2l0,0l13.5,13.5l0,0c2.3,2.3,5.4,3.6,8.6,3.6l0,0.1h51.7l0-0.1
		c6.7,0,12.1-5.4,12.1-12.1v0v-92.2l0,0c0-3.2-1.3-6.3-3.6-8.6l0,0l-23.6-23.7l0,0c-0.8-0.8-1.2-1.8-1.2-2.9v0V253.6v0
		c0-1.1,0.4-2.1,1.2-2.9l0,0.1l23.6-23.7l0,0c2.3-2.3,3.6-5.4,3.6-8.6v0v-92.2v0c0-6.7-5.4-12.1-12.1-12.1h0h-51.7l0,0
		c-3.2,0-6.3,1.3-8.6,3.6l0,0l-13.5,13.5l0-0.1c-0.8,0.8-1.8,1.2-2.9,1.2l0,0.1h-106l0-0.1c-1.1,0-2.1-0.4-2.9-1.2l-0.1,0.1
		l-13.5-13.5l0,0c-2.3-2.3-5.4-3.6-8.6-3.6h0H13.1h0c-6.7,0-12.1,5.4-12.1,12.1l-0.1,0v92.2l0.1,0c0,3.2,1.3,6.3,3.6,8.6l0,0
		L28.2,250.7"/>
	<g>
		<g>
			<path class="st1" d="M273.2,70.6c-10.8,10.8-20.5,20.5-29.3,29.3l-52.7-52.7l-22.6,216.5l216.5-22.6L328.1,184
				c3.6-3.6,7.3-7.3,11-11c48.5-48.5,114.6-117.1,172-69.5C478.1,21.8,379.3-35.5,273.2,70.6z"/>
		</g>
		<g>
			<path class="st2" d="M273.2,70.6c-10.8,10.8-20.5,20.5-29.3,29.3l-52.7-52.7l-22.6,216.5l216.5-22.6L328.1,184
				c3.6-3.6,7.3-7.3,11-11c48.5-48.5,114.6-117.1,172-69.5C478.1,21.8,379.3-35.5,273.2,70.6z"/>
		</g>
	</g>
</g>
</svg>
