<?xml version="1.0" encoding="utf-8"?>
<!-- Generator: Adobe Illustrator 26.0.3, SVG Export Plug-In . SVG Version: 6.00 Build 0)  -->
<svg version="1.1" id="レイヤー_1" xmlns="http://www.w3.org/2000/svg" xmlns:xlink="http://www.w3.org/1999/xlink" x="0px"
	 y="0px" viewBox="0 0 512 512" style="enable-background:new 0 0 512 512;" xml:space="preserve">
<style type="text/css">
	.st0{fill:#4B4B4B;}
</style>
<g>
	<path class="st0" d="M202.3,406.4H59.1c-10.1,0-18.3,8.2-18.3,18.3V448c0,10.1,8.2,18.3,18.3,18.3h143.2c10.1,0,18.3-8.2,18.3-18.3
		v-23.3C220.6,414.6,212.4,406.4,202.3,406.4z M211.6,448c0,5.2-4.2,9.3-9.3,9.3H59.1c-5.2,0-9.3-4.2-9.3-9.3v-23.3
		c0-5.2,4.2-9.3,9.3-9.3h143.2c5.2,0,9.3,4.2,9.3,9.3L211.6,448L211.6,448z"/>
	<rect x="70.7" y="427.3" class="st0" width="18" height="18"/>
	<rect x="75.2" y="331.3" class="st0" width="9" height="75"/>
	<circle class="st0" cx="79.7" cy="331.3" r="15"/>
</g>
<g>
	<path class="st0" d="M217.2,243.3c5.6-5.6,58-73,107.7-58.7c-27-25.3-89.8-39.7-147.5,18.9l-22.8-22.8l-14,101.6l101.5-14
		L217.2,243.3L217.2,243.3z"/>
	<path class="st0" d="M294.1,269.3c-5.6,5.6-58.1,73-107.7,58.7c27,25.3,89.7,39.7,147.5-18.9l22.8,22.8l14-101.6l-101.6,14
		L294.1,269.3z"/>
</g>
<g>
	<path class="st0" d="M286.6,72.9L301.7,88c50.2-50.1,131.8-50.1,181.9,0l15.2-15.2C440.3,14.4,345.1,14.4,286.6,72.9z"/>
	<path class="st0" d="M316.9,103.2l15.2,15.2c33.4-33.4,87.8-33.4,121.3,0l15.2-15.2C426.7,61.4,358.7,61.4,316.9,103.2z"/>
	<path class="st0" d="M347.2,133.5l15.2,15.2c16.7-16.7,43.9-16.7,60.6,0l15.2-15.2C413.1,108.4,372.3,108.4,347.2,133.5z"/>
	<path class="st0" d="M377.5,163.8l15.2,15.2l15.2-15.2C399.5,155.5,385.9,155.5,377.5,163.8z"/>
</g>
</svg>
